<?xml version="1.0" encoding="UTF-8" standalone="no"?>
<!-- Created with Inkscape (http://www.inkscape.org/) -->

<svg
   width="793.70081"
   height="1122.5197"
   viewBox="0 0 210 297"
   version="1.1"
   id="svg5"
   inkscape:version="1.1.2 (b8e25be833, 2022-02-05)"
   sodipodi:docname="Islamic-001.svg"
   xmlns:inkscape="http://www.inkscape.org/namespaces/inkscape"
   xmlns:sodipodi="http://sodipodi.sourceforge.net/DTD/sodipodi-0.dtd"
   xmlns="http://www.w3.org/2000/svg"
   xmlns:svg="http://www.w3.org/2000/svg">
  <sodipodi:namedview
     id="namedview7"
     pagecolor="#ffffff"
     bordercolor="#111111"
     borderopacity="1"
     inkscape:pageshadow="0"
     inkscape:pageopacity="0"
     inkscape:pagecheckerboard="false"
     inkscape:document-units="px"
     showgrid="true"
     inkscape:zoom="4"
     inkscape:cx="303.625"
     inkscape:cy="1379.5"
     inkscape:window-width="1920"
     inkscape:window-height="1009"
     inkscape:window-x="-8"
     inkscape:window-y="-8"
     inkscape:window-maximized="1"
     inkscape:current-layer="layer1"
     inkscape:snap-grids="false"
     units="px"
     inkscape:snap-to-guides="true"
     inkscape:object-paths="true"
     inkscape:snap-intersection-paths="true"
     showguides="true"
     inkscape:guide-bbox="true"
     inkscape:lockguides="false">
    <inkscape:grid
       type="xygrid"
       id="grid832" />
    <sodipodi:guide
       position="17.424773,165.80439"
       orientation="0,-1"
       id="guide1744"
       inkscape:locked="false" />
    <sodipodi:guide
       position="17.425012,158.32085"
       orientation="0,-1"
       id="guide1906"
       inkscape:locked="false" />
    <sodipodi:guide
       position="17.425018,158.32085"
       orientation="1,0"
       id="guide1908"
       inkscape:locked="false" />
    <sodipodi:guide
       position="26.458332,156.77084"
       orientation="1,0"
       id="guide1910"
       inkscape:locked="false" />
    <sodipodi:guide
       position="15.875,167.35417"
       orientation="0,-1"
       id="guide1992"
       inkscape:locked="false" />
    <sodipodi:guide
       position="15.875,156.77084"
       orientation="0,-1"
       id="guide1994"
       inkscape:locked="false" />
    <sodipodi:guide
       position="15.875007,156.77084"
       orientation="0.70710678,-0.70710678"
       id="guide1996" />
    <sodipodi:guide
       position="26.458332,156.77104"
       orientation="-0.70710678,-0.70710678"
       id="guide2160" />
    <sodipodi:guide
       position="21.166665,162.06275"
       orientation="0,-1"
       id="guide2224" />
    <sodipodi:guide
       position="21.166665,162.06275"
       orientation="1,0"
       id="guide2226" />
    <sodipodi:guide
       position="21.166665,156.77107"
       orientation="0.70710678,-0.70710678"
       id="guide2228" />
    <sodipodi:guide
       position="15.874999,162.06275"
       orientation="0.70710678,-0.70710678"
       id="guide2230" />
    <sodipodi:guide
       position="26.458332,162.06274"
       orientation="-0.70710678,-0.70710678"
       id="guide2232" />
    <sodipodi:guide
       position="21.166665,156.77107"
       orientation="-0.70710678,-0.70710678"
       id="guide2234" />
    <sodipodi:guide
       position="17.425407,160.51337"
       orientation="0,-1"
       id="guide4571" />
    <sodipodi:guide
       position="17.42488,163.61264"
       orientation="-0.70710678,-0.70710678"
       id="guide5191" />
    <sodipodi:guide
       position="22.716681,165.80439"
       orientation="1,0"
       id="guide6658" />
    <sodipodi:guide
       position="17.425018,160.51272"
       orientation="0.70710678,-0.70710678"
       id="guide6855" />
    <sodipodi:guide
       position="15.233148,158.32085"
       orientation="1,0"
       id="guide6857" />
    <sodipodi:guide
       position="28.007701,160.51337"
       orientation="1,0"
       id="guide7747" />
    <sodipodi:guide
       position="19.616639,165.80439"
       orientation="-0.70710678,-0.70710678"
       id="guide7980" />
    <sodipodi:guide
       position="24.908445,163.61263"
       orientation="0.70710678,-0.70710678"
       id="guide7982" />
    <sodipodi:guide
       position="24.908443,163.61263"
       orientation="1,0"
       id="guide7984" />
    <sodipodi:guide
       position="12.133107,165.8044"
       orientation="1,0"
       id="guide8425" />
    <sodipodi:guide
       position="19.616638,165.80439"
       orientation="1,0"
       id="guide8427" />
    <sodipodi:guide
       position="19.616637,168.90444"
       orientation="0,-1"
       id="guide8429" />
    <sodipodi:guide
       position="17.425018,167.99601"
       orientation="0.70710678,-0.70710678"
       id="guide8431" />
    <sodipodi:guide
       position="17.425018,163.61251"
       orientation="0,-1"
       id="guide10085" />
  </sodipodi:namedview>
  <defs
     id="defs2" />
  <g
     inkscape:label="Layer 1"
     inkscape:groupmode="layer"
     id="layer1">
    <rect
       style="fill:#99c1f1;fill-opacity:0.5;stroke:none;stroke-width:0.847346;stroke-miterlimit:4;stroke-dasharray:none"
       id="rect29"
       width="10.583333"
       height="10.583333"
       x="10.318749"
       y="88.370834" />
    <circle
       style="fill:#99c1f1;fill-opacity:0.5;stroke:none;stroke-width:0.264583;stroke-miterlimit:4;stroke-dasharray:none"
       id="path984"
       cx="5.2916665"
       cy="91.28125"
       r="2.6458333" />
    <rect
       style="fill:#99c1f1;fill-opacity:0.5;stroke:none;stroke-width:0.847346;stroke-miterlimit:4;stroke-dasharray:none"
       id="rect1073"
       width="10.583333"
       height="10.583333"
       x="10.318749"
       y="99.483337" />
    <rect
       style="fill:#99c1f1;fill-opacity:0.5;stroke:none;stroke-width:0.847346;stroke-miterlimit:4;stroke-dasharray:none"
       id="rect1075"
       width="10.583333"
       height="10.583333"
       x="21.43125"
       y="99.483337" />
    <rect
       style="fill:#99c1f1;fill-opacity:0.5;stroke:none;stroke-width:0.847346;stroke-miterlimit:4;stroke-dasharray:none"
       id="rect1077"
       width="10.583333"
       height="10.583333"
       x="21.43125"
       y="88.370834" />
    <circle
       style="fill:#99c1f1;fill-opacity:0.5;stroke:none;stroke-width:0.529166;stroke-miterlimit:4;stroke-dasharray:none"
       id="circle1079"
       cx="21.166666"
       cy="134.93726"
       r="5.2916665" />
    <circle
       style="fill:#99c1f1;fill-opacity:0.2;stroke:none;stroke-width:0.529166;stroke-miterlimit:4;stroke-dasharray:none"
       id="circle1081"
       cx="15.874999"
       cy="134.93726"
       r="5.2916665" />
    <circle
       style="fill:#99c1f1;fill-opacity:0.2;stroke:none;stroke-width:0.529166;stroke-miterlimit:4;stroke-dasharray:none"
       id="circle1083"
       cx="26.458334"
       cy="134.93726"
       r="5.2916665" />
    <circle
       style="fill:#99c1f1;fill-opacity:0.2;stroke:none;stroke-width:0.529166;stroke-miterlimit:4;stroke-dasharray:none"
       id="circle1085"
       cx="21.166666"
       cy="129.6456"
       r="5.2916665" />
    <circle
       style="fill:#99c1f1;fill-opacity:0.2;stroke:none;stroke-width:0.529166;stroke-miterlimit:4;stroke-dasharray:none"
       id="circle1087"
       cx="21.166666"
       cy="140.22891"
       r="5.2916665" />
    <path
       style="fill:#c64600;stroke:none;stroke-width:0.264583px;stroke-linecap:butt;stroke-linejoin:miter;stroke-opacity:1"
       d="m -29.633334,201.28145 1.550019,-1.55002 -2.44e-4,-2.19162 h 2.191866 l 1.569017,-1.54998 1.530905,1.54986 2.19237,5.3e-4 -4.76e-4,2.19139 1.549886,1.54993 -1.549888,1.54985 7.8e-5,2.192 -2.191488,2.6e-4 -1.550599,1.54965 -1.549663,-1.55012 -2.191407,5.3e-4 -4.76e-4,-2.19236 z"
       id="path2269" />
    <path
       style="fill:#26a269;stroke:none;stroke-width:0.264583px;stroke-linecap:butt;stroke-linejoin:miter;stroke-opacity:1"
       d="m -34.83019,229.96033 3.741647,-3.7419 3.741659,3.7419 z"
       id="path2580" />
    <path
       style="fill:#26a269;stroke:none;stroke-width:0.264583px;stroke-linecap:butt;stroke-linejoin:miter;stroke-opacity:1"
       d="m -26.892832,225.12252 2.191888,-2e-5 1.549901,-1.54989 1.549895,1.54989 2.19237,5.3e-4 -4.76e-4,5.29117 -3.741779,3.74178 -3.741777,-3.74178 z"
       id="path2837" />
    <path
       style="fill:#1a5fb4;stroke:none;stroke-width:0.264583px;stroke-linecap:butt;stroke-linejoin:miter;stroke-opacity:1"
       d="m -28.082928,242.31991 -4.23e-4,5.29229 h 2.191657 l 1.569017,-1.54998 z"
       id="path3052" />
    <path
       style="fill:#1a5fb4;stroke:none;stroke-width:0.264583px;stroke-linecap:butt;stroke-linejoin:miter;stroke-opacity:1"
       d="m -23.24573,241.86648 3.099673,1.1e-4 2.191999,-2.192 -1.1e-5,7.48355 z"
       id="path3233" />
    <path
       style="fill:#1a5fb4;stroke:none;stroke-width:0.264583px;stroke-linecap:butt;stroke-linejoin:miter;stroke-opacity:1"
       d="m -44.751676,241.26157 3.741201,3.74228 3.74182,-3.74178 1.31e-4,5.29179 5.291547,-1.2e-4 -3.741773,3.74177 3.741775,3.74178 -5.291585,1.1e-4 -8.9e-5,5.29155 -3.741768,-3.74177 -3.74165,3.74189 3.44e-4,-5.29131 -5.292266,-2.6e-4 3.7419,-3.74189 -3.741892,-3.74166 h 5.291667 z"
       id="path3476" />
    <path
       style="fill:#1a5fb4;stroke:none;stroke-width:0.264583px;stroke-linecap:butt;stroke-linejoin:miter;stroke-opacity:1"
       d="m -29.141261,253.96156 3.741259,3.74228 3.741761,-3.74178 1.3e-4,5.29179 h 5.291429 l -5.291542,5.29154 -7.483426,1.3e-4 -5.291911,-5.29167 h 5.291875 z"
       id="path4453" />
    <path
       style="fill:#1a5fb4;stroke:none;stroke-width:0.264583px;stroke-linecap:butt;stroke-linejoin:miter;stroke-opacity:1"
       d="m -15.118769,251.31636 3.741643,3.74164 3.7417604,-3.74177 5.03e-4,5.29216 5.291172,-5.3e-4 -5.29166,5.29166 -4.3842894,-4.8e-4 -3.098949,-3.09894 z"
       id="path5029" />
    <path
       style="fill:#9141ac;stroke:none;stroke-width:0.264583px;stroke-linecap:butt;stroke-linejoin:miter;stroke-opacity:1"
       d="m -39.04651,271.75126 5.291543,5.29178 h 7.483544 l -5.291542,5.29154 -4.384294,-5.3e-4 -3.099132,-3.0994 z"
       id="path6069" />
    <path
       style="fill:#9141ac;stroke:none;stroke-width:0.264583px;stroke-linecap:butt;stroke-linejoin:miter;stroke-opacity:1"
       d="m -27.703923,274.95666 7.483431,-1.2e-4 5.29114,5.29114 h -7.483551 z"
       id="path6460" />
    <path
       style="fill:#9141ac;stroke:none;stroke-width:0.264583px;stroke-linecap:butt;stroke-linejoin:miter;stroke-opacity:1"
       d="m -20.220372,297.39831 -3.09991,-3.09991 -4.383624,1.1e-4 3.741761,-3.74176 -3.741761,-3.74178 h 7.483535 l 5.291019,5.29102 h -5.291699 z"
       id="path6892" />
    <path
       style="fill:#9141ac;stroke:none;stroke-width:0.264583px;stroke-linecap:butt;stroke-linejoin:miter;stroke-opacity:1"
       d="m -39.932718,285.85146 7.483533,-2e-5 5.29102,5.29102 h -5.29102 l -2.36e-4,2.19252 -1.549779,1.54978 -1.550009,-1.54978 h -2.19164 l -6.62e-4,-2.19252 1.550405,-1.54938 z"
       id="path7267" />
    <path
       style="fill:#e5a50a;stroke:none;stroke-width:0.264583px;stroke-linecap:butt;stroke-linejoin:miter;stroke-opacity:1"
       d="m 49.175014,207.47046 5.291663,-5.29166 5.29102,7.9e-4 v 5.29143 l -5.291256,5.29126 h -5.291427 z"
       id="path7782" />
    <path
       style="fill:#e5a50a;stroke:none;stroke-width:0.264583px;stroke-linecap:butt;stroke-linejoin:miter;stroke-opacity:1"
       d="m 50.807523,218.54766 3.741647,3.74165 1.559977,-1.5602 2.181801,0.0103 -1.89e-4,2.19184 1.55009,1.54969 -1.53918,1.56065 -0.01084,2.18125 H 56.09895 l -1.54978,1.54978 -3.741647,-3.74165 z"
       id="path8019" />
    <path
       style="fill:#e5a50a;stroke:none;stroke-width:0.264583px;stroke-linecap:butt;stroke-linejoin:miter;stroke-opacity:1"
       d="m 67.845414,219.67019 0.01042,7.47264 3.731224,3.7523 3.752499,-3.73103 -0.01072,-5.30241 -2.201937,0.0101 -1.539841,1.54007 z"
       id="path8170" />
    <path
       style="fill:#e5a50a;stroke:none;stroke-width:0.264583px;stroke-linecap:butt;stroke-linejoin:miter;stroke-opacity:1"
       d="m 61.069308,211.03712 3.741372,-3.74164 h 4.383508 l 3.100043,-3.10005 h 5.291925 l -7.94e-4,5.29233 -5.29102,5.29103 -7.483533,2.3e-4 z"
       id="path8466" />
    <path
       style="fill:#9a9996;stroke:none;stroke-width:0.264583px;stroke-linecap:butt;stroke-linejoin:miter;stroke-opacity:1"
       d="m 67.828139,234.30801 3.741647,3.74164 3.741778,-3.74177 -0.01076,7.47256 -3.731018,3.75251 -3.7423,-3.7423 z"
       id="path8767" />
    <path
       style="fill:#9a9996;stroke:none;stroke-width:0.264583px;stroke-linecap:butt;stroke-linejoin:miter;stroke-opacity:1"
       d="m 71.569787,254.52876 -1.550028,-1.55003 v -2.19227 l -2.19162,5.3e-4 -1.550019,-1.55002 1.550198,-1.54958 -1.79e-4,-2.19204 2.191621,-3e-5 1.550024,1.55002 1.559979,-1.5602 2.181801,0.0103 -0.01076,5.2807 z"
       id="path8918" />
    <path
       style="fill:#9a9996;stroke:none;stroke-width:0.264583px;stroke-linecap:butt;stroke-linejoin:miter;stroke-opacity:1"
       d="m 60.986455,245.53295 -3.731224,-3.7523 -0.01046,-5.28102 2.202089,0.0102 1.539593,1.53982 1.550017,-1.55003 2.191762,1.2e-4 -0.01076,5.2807 z"
       id="path9069" />
    <path
       style="fill:#9a9996;stroke:none;stroke-width:0.264583px;stroke-linecap:butt;stroke-linejoin:miter;stroke-opacity:1"
       d="m 60.986454,256.11627 -1.550008,-1.54978 -2.191641,1e-5 0.01043,-2.20253 1.539328,-1.53938 -1.549752,-1.55002 3.97e-4,-2.19225 2.181037,-0.01 1.56022,1.56044 1.539841,-1.54006 2.201937,-0.01 10e-7,2.19165 1.549902,1.54988 -1.549381,1.54938 -6.35e-4,2.19252 h -2.191879 z"
       id="path9220" />
    <path
       style="fill:#986a44;stroke:none;stroke-width:0.264583px;stroke-linecap:butt;stroke-linejoin:miter;stroke-opacity:1"
       d="m 61.685409,268.32484 -2.181223,-2.20252 -0.01042,-3.0894 2.202053,-2.18141 3.079435,-2.5e-4 -3.089868,3.09009 z"
       id="path9754" />
    <path
       style="fill:#986a44;stroke:none;stroke-width:0.264583px;stroke-linecap:butt;stroke-linejoin:miter;stroke-opacity:1"
       d="m 59.971237,277.14728 v -3.10006 l -2.191287,-2.19128 3.099457,-2.7e-4 2.191874,-2.19188 -10e-7,3.10005 2.192284,2.19098 h -3.09978 z"
       id="path10120" />
    <path
       style="fill:#986a44;stroke:none;stroke-width:0.264583px;stroke-linecap:butt;stroke-linejoin:miter;stroke-opacity:1"
       d="m 72.312218,270.47279 -2.181698,2.18192 h -3.100049 l 3.099391,3.09914 h 4.384815 l -2.192284,-2.19098 z"
       id="path10384" />
    <path
       style="fill:#986a44;stroke:none;stroke-width:0.264583px;stroke-linecap:butt;stroke-linejoin:miter;stroke-opacity:1"
       d="m 70.550065,258.19549 -1.579212,1.53956 0.01019,2.2023 h -2.191874 l -1.549759,1.54976 1.549365,1.54938 h 2.193172 l -9e-4,2.19227 1.550028,1.55003 1.549779,-1.54978 2.36e-4,-2.19184 2.202483,0.0106 1.539167,-1.56064 -1.54977,-1.54977 h -2.19188 l 7e-6,-2.19188 z"
       id="path10535" />
    <path
       style="fill:#dc8add;stroke:none;stroke-width:0.264583px;stroke-linecap:butt;stroke-linejoin:miter;stroke-opacity:1"
       d="m 61.780206,287.60173 1.550015,-1.55001 -1.550014,-1.54977 -2e-6,-2.19188 -2.191617,-2e-5 -1.550461,-1.55017 -1.549588,1.55017 1.560443,1.53938 -0.01042,2.20252 h 2.191621 z"
       id="path10913" />
    <path
       style="fill:#dc8add;stroke:none;stroke-width:0.264583px;stroke-linecap:butt;stroke-linejoin:miter;stroke-opacity:1"
       d="m 73.735676,282.61588 2.191621,-4e-5 1.550027,1.55002 -2.191757,2.19176 -1.550322,-1.55031 z"
       id="path11293" />
    <path
       style="fill:#dc8add;stroke:none;stroke-width:0.264583px;stroke-linecap:butt;stroke-linejoin:miter;stroke-opacity:1"
       d="m 65.722102,282.27618 1.559979,-1.56019 2.181801,0.0101 -1.89e-4,2.19207 1.550078,1.5497 -1.560649,1.53916 -2.181681,0.0102 6.87e-4,-2.19097 z"
       id="path11514" />
    <path
       style="fill:#26a269;stroke:none;stroke-width:0.264583px;stroke-linecap:butt;stroke-linejoin:miter;stroke-opacity:1"
       d="m -24.908968,218.63965 6.61e-4,2.19252 5.291664,1e-5 3.741653,-3.7419 -1.54989,-1.54989 v -2.19188 l -5.281372,0.0103 -3.752074,3.73144 z"
       id="path11894" />
    <path
       style="fill:#26a269;stroke:none;stroke-width:0.264583px;stroke-linecap:butt;stroke-linejoin:miter;stroke-opacity:1"
       d="m -35.491683,213.34863 h 5.2917 l 3.74165,3.74165 -3.741299,3.74225 -3.100813,8e-5 -2.201847,-2.18189 z"
       id="path12045" />
    <path
       style="fill:#c64600;stroke:none;stroke-width:0.264583px;stroke-linecap:butt;stroke-linejoin:miter;stroke-opacity:1"
       d="m -11.906309,195.98977 1.560035,1.53984 2.1822894,0.0105 -3.17e-4,2.19122 1.549707,1.55006 -3.7412984,3.74225 -5.292015,-2.6e-4 v -2.19187 l -1.550019,-1.55004 1.550019,-1.55001 3.96e-4,-2.19226 2.201664,0.0109 z"
       id="path12549" />
    <path
       style="fill:#1a5fb4;stroke:none;stroke-width:0.264583px;stroke-linecap:butt;stroke-linejoin:miter;stroke-opacity:1"
       d="m 66.373313,310.05315 3.741201,3.74228 3.74182,-3.74178 1.31e-4,5.29179 5.291547,-1.2e-4 -3.741773,3.74177 3.741775,3.74178 -5.291585,1.1e-4 -8.9e-5,5.29155 -3.741768,-3.74177 -3.74165,3.74189 3.44e-4,-5.29131 -5.292266,-2.6e-4 3.7419,-3.74189 -3.741892,-3.74166 h 5.291667 z"
       id="path13066" />
    <path
       style="fill:#e5a50a;stroke:none;stroke-width:0.264583px;stroke-linecap:butt;stroke-linejoin:miter;stroke-opacity:1"
       d="m 55.827734,328.08254 5.291663,-5.29166 5.29102,7.9e-4 v 5.29143 l -5.291256,5.29126 h -5.291427 z"
       id="path13068" />
    <path
       style="fill:#e5a50a;stroke:none;stroke-width:0.264583px;stroke-linecap:butt;stroke-linejoin:miter;stroke-opacity:1"
       d="m 73.819401,310.09111 5.291663,-5.29166 5.29102,7.9e-4 v 5.29143 l -5.291256,5.29126 h -5.291427 z"
       id="path13070" />
    <path
       style="fill:#e5a50a;stroke:none;stroke-width:0.264583px;stroke-linecap:butt;stroke-linejoin:miter;stroke-opacity:1"
       d="m 79.11057,322.79167 5.29166,5.29166 -7.9e-4,5.29102 h -5.29143 l -5.29126,-5.29125 v -5.29143 z"
       id="path13072" />
    <path
       style="fill:#e5a50a;stroke:none;stroke-width:0.264583px;stroke-linecap:butt;stroke-linejoin:miter;stroke-opacity:1"
       d="m 61.119547,304.80065 5.29166,5.29166 -7.9e-4,5.29102 h -5.29143 l -5.29126,-5.29125 v -5.29143 z"
       id="path13074" />
    <path
       style="fill:#dc8add;stroke:none;stroke-width:0.264583px;stroke-linecap:butt;stroke-linejoin:miter;stroke-opacity:1"
       d="m 70.114584,313.79583 -1.579212,1.53956 0.01019,2.2023 h -2.191874 l -1.549759,1.54976 1.549365,1.54938 h 2.193172 l -9e-4,2.19227 1.550028,1.55003 1.549779,-1.54978 2.36e-4,-2.19184 2.202483,0.0106 1.539167,-1.56064 -1.54977,-1.54977 h -2.19188 l 7e-6,-2.19188 z"
       id="path13357" />
    <path
       style="fill:#26a269;stroke:none;stroke-width:0.264583px;stroke-linecap:butt;stroke-linejoin:miter;stroke-opacity:1"
       d="m 68.563987,322.82864 v -3.10006 l -2.191287,-2.19128 3.099457,-2.7e-4 2.191874,-2.19188 -10e-7,3.10005 2.192284,2.19098 h -3.09978 z"
       id="path13158" />
    <path
       style="fill:#26a269;stroke:none;stroke-width:0.264583px;stroke-linecap:butt;stroke-linejoin:miter;stroke-opacity:1"
       d="m 66.372934,304.76248 v 5.2917 l 3.74165,3.74165 3.74225,-3.7413 8e-5,-3.10081 -2.18189,-2.20185 z"
       id="path13595" />
    <path
       style="fill:#26a269;stroke:none;stroke-width:0.264583px;stroke-linecap:butt;stroke-linejoin:miter;stroke-opacity:1"
       d="m 66.353944,333.41248 v -5.2917 l 3.74165,-3.74165 3.74225,3.7413 8e-5,3.10081 -2.18189,2.20185 z"
       id="path13597" />
    <path
       style="fill:#26a269;stroke:none;stroke-width:0.264583px;stroke-linecap:butt;stroke-linejoin:miter;stroke-opacity:1"
       d="m 84.439714,322.82887 h -5.2917 l -3.74165,-3.74165 3.7413,-3.74225 3.10081,-8e-5 2.20185,2.18189 z"
       id="path13599" />
    <path
       style="fill:#26a269;stroke:none;stroke-width:0.264583px;stroke-linecap:butt;stroke-linejoin:miter;stroke-opacity:1"
       d="m 55.7893,322.82908 h 5.2917 l 3.74165,-3.74165 -3.7413,-3.74225 -3.10081,-8e-5 -2.20185,2.18189 z"
       id="path13601" />
    <path
       style="fill:#c64600;stroke:none;stroke-width:0.264583px;stroke-linecap:butt;stroke-linejoin:miter;stroke-opacity:1"
       d="m 66.372744,310.05414 1.9e-4,-5.29166 -5.29168,1.7e-4 z"
       id="path13603" />
    <path
       style="fill:#c061cb;stroke:none;stroke-width:0.264583px;stroke-linecap:butt;stroke-linejoin:miter;stroke-opacity:1"
       d="m 73.856804,310.05339 1.1e-4,-3.09967 -2.192,-2.192 7.48355,10e-6 z"
       id="path13623" />
    <path
       style="fill:#c64600;stroke:none;stroke-width:0.264583px;stroke-linecap:butt;stroke-linejoin:miter;stroke-opacity:1"
       d="m 66.353754,328.12082 1.9e-4,5.29166 -5.29168,-1.7e-4 z"
       id="path13661" />
    <path
       style="fill:#c64600;stroke:none;stroke-width:0.264583px;stroke-linecap:butt;stroke-linejoin:miter;stroke-opacity:1"
       d="m 79.11057,322.79167 5.29166,-1.9e-4 -1.7e-4,5.29168 z"
       id="path13663" />
    <path
       style="fill:#c64600;stroke:none;stroke-width:0.264583px;stroke-linecap:butt;stroke-linejoin:miter;stroke-opacity:1"
       d="m 61.08096,322.82927 -5.29166,-1.9e-4 1.7e-4,5.29168 z"
       id="path13665" />
    <path
       style="fill:#c061cb;stroke:none;stroke-width:0.264583px;stroke-linecap:butt;stroke-linejoin:miter;stroke-opacity:1"
       d="m 61.08021,315.34521 -3.09967,-1.1e-4 -2.192,2.192 1e-5,-7.48355 z"
       id="path13667" />
    <path
       style="fill:#c061cb;stroke:none;stroke-width:0.264583px;stroke-linecap:butt;stroke-linejoin:miter;stroke-opacity:1"
       d="m 71.646048,333.41296 2.191876,-2.19172 v -3.09996 l 5.291662,5.29168 z"
       id="path13669" />
    <path
       style="fill:#c061cb;stroke:none;stroke-width:0.264583px;stroke-linecap:butt;stroke-linejoin:miter;stroke-opacity:1"
       d="m 84.402084,317.57521 -2.19172,-2.19188 h -3.09996 l 5.29168,-5.29166 z"
       id="path13671" />
    <g
       id="g13730"
       transform="translate(-0.26522685,-0.52975574)">
      <path
         style="fill:#1a5fb4;stroke:none;stroke-width:0.264583px;stroke-linecap:butt;stroke-linejoin:miter;stroke-opacity:1"
         d="m 66.373313,357.67809 3.741201,3.74228 3.74182,-3.74178 1.31e-4,5.29179 5.291547,-1.2e-4 -3.741773,3.74177 3.741775,3.74178 -5.291585,1.1e-4 -8.9e-5,5.29155 -3.741768,-3.74177 -3.74165,3.74189 3.44e-4,-5.29131 -5.292266,-2.6e-4 3.7419,-3.74189 -3.741892,-3.74166 h 5.291667 z"
         id="path13673" />
      <path
         style="fill:#e5a50a;stroke:none;stroke-width:0.264583px;stroke-linecap:butt;stroke-linejoin:miter;stroke-opacity:1"
         d="m 55.827734,375.70748 5.291663,-5.29166 5.29102,7.9e-4 v 5.29143 l -5.291256,5.29126 h -5.291427 z"
         id="path13675" />
      <path
         style="fill:#e5a50a;stroke:none;stroke-width:0.264583px;stroke-linecap:butt;stroke-linejoin:miter;stroke-opacity:1"
         d="m 73.819401,357.71605 5.291663,-5.29166 5.29102,7.9e-4 v 5.29143 l -5.291256,5.29126 h -5.291427 z"
         id="path13677" />
      <path
         style="fill:#e5a50a;stroke:none;stroke-width:0.264583px;stroke-linecap:butt;stroke-linejoin:miter;stroke-opacity:1"
         d="m 79.11057,370.41661 5.29166,5.29166 -7.9e-4,5.29102 h -5.29143 l -5.29126,-5.29125 v -5.29143 z"
         id="path13679" />
      <path
         style="fill:#e5a50a;stroke:none;stroke-width:0.264583px;stroke-linecap:butt;stroke-linejoin:miter;stroke-opacity:1"
         d="m 61.119547,352.42559 5.29166,5.29166 -7.9e-4,5.29102 h -5.29143 l -5.29126,-5.29125 v -5.29143 z"
         id="path13681" />
      <path
         style="fill:#dc8add;stroke:none;stroke-width:0.264583px;stroke-linecap:butt;stroke-linejoin:miter;stroke-opacity:1"
         d="m 70.114584,361.42077 -1.579212,1.53956 0.01019,2.2023 h -2.191874 l -1.549759,1.54976 1.549365,1.54938 h 2.193172 l -9e-4,2.19227 1.550028,1.55003 1.549779,-1.54978 2.36e-4,-2.19184 2.202483,0.0106 1.539167,-1.56064 -1.54977,-1.54977 h -2.19188 l 7e-6,-2.19188 z"
         id="path13683" />
      <path
         style="fill:#26a269;stroke:none;stroke-width:0.264583px;stroke-linecap:butt;stroke-linejoin:miter;stroke-opacity:1"
         d="m 68.563987,370.45358 v -3.10006 l -2.191287,-2.19128 3.099457,-2.7e-4 2.191874,-2.19188 -10e-7,3.10005 2.192284,2.19098 h -3.09978 z"
         id="path13685" />
      <path
         style="fill:#26a269;stroke:none;stroke-width:0.264583px;stroke-linecap:butt;stroke-linejoin:miter;stroke-opacity:1"
         d="m 66.372934,352.38742 v 5.2917 l 3.74165,3.74165 3.74225,-3.7413 8e-5,-3.10081 -2.18189,-2.20185 z"
         id="path13687" />
      <path
         style="fill:#26a269;stroke:none;stroke-width:0.264583px;stroke-linecap:butt;stroke-linejoin:miter;stroke-opacity:1"
         d="m 66.353944,381.03742 v -5.2917 l 3.74165,-3.74165 3.74225,3.7413 8e-5,3.10081 -2.18189,2.20185 z"
         id="path13689" />
      <path
         style="fill:#26a269;stroke:none;stroke-width:0.264583px;stroke-linecap:butt;stroke-linejoin:miter;stroke-opacity:1"
         d="m 84.439714,370.45381 h -5.2917 l -3.74165,-3.74165 3.7413,-3.74225 3.10081,-8e-5 2.20185,2.18189 z"
         id="path13691" />
      <path
         style="fill:#26a269;stroke:none;stroke-width:0.264583px;stroke-linecap:butt;stroke-linejoin:miter;stroke-opacity:1"
         d="m 55.7893,370.45402 h 5.2917 l 3.74165,-3.74165 -3.7413,-3.74225 -3.10081,-8e-5 -2.20185,2.18189 z"
         id="path13693" />
      <path
         style="fill:#c64600;stroke:none;stroke-width:0.264583px;stroke-linecap:butt;stroke-linejoin:miter;stroke-opacity:1"
         d="m 66.372744,357.67908 1.9e-4,-5.29166 -5.29168,1.7e-4 z"
         id="path13695" />
      <path
         style="fill:#c061cb;stroke:none;stroke-width:0.264583px;stroke-linecap:butt;stroke-linejoin:miter;stroke-opacity:1"
         d="m 73.856804,357.67833 1.1e-4,-3.09967 -2.192,-2.192 7.48355,10e-6 z"
         id="path13697" />
      <path
         style="fill:#c64600;stroke:none;stroke-width:0.264583px;stroke-linecap:butt;stroke-linejoin:miter;stroke-opacity:1"
         d="m 66.353754,375.74576 1.9e-4,5.29166 -5.29168,-1.7e-4 z"
         id="path13699" />
      <path
         style="fill:#c64600;stroke:none;stroke-width:0.264583px;stroke-linecap:butt;stroke-linejoin:miter;stroke-opacity:1"
         d="m 79.11057,370.41661 5.29166,-1.9e-4 -1.7e-4,5.29168 z"
         id="path13701" />
      <path
         style="fill:#c64600;stroke:none;stroke-width:0.264583px;stroke-linecap:butt;stroke-linejoin:miter;stroke-opacity:1"
         d="m 61.08096,370.45421 -5.29166,-1.9e-4 1.7e-4,5.29168 z"
         id="path13703" />
      <path
         style="fill:#c061cb;stroke:none;stroke-width:0.264583px;stroke-linecap:butt;stroke-linejoin:miter;stroke-opacity:1"
         d="m 61.08021,362.97015 -3.09967,-1.1e-4 -2.192,2.192 1e-5,-7.48355 z"
         id="path13705" />
      <path
         style="fill:#c061cb;stroke:none;stroke-width:0.264583px;stroke-linecap:butt;stroke-linejoin:miter;stroke-opacity:1"
         d="m 71.646048,381.0379 2.191876,-2.19172 v -3.09996 l 5.291662,5.29168 z"
         id="path13707" />
      <path
         style="fill:#c061cb;stroke:none;stroke-width:0.264583px;stroke-linecap:butt;stroke-linejoin:miter;stroke-opacity:1"
         d="m 84.402084,365.20015 -2.19172,-2.19188 h -3.09996 l 5.29168,-5.29166 z"
         id="path13709" />
    </g>
    <g
       id="g13770"
       transform="translate(28.308479,-0.52976574)">
      <path
         style="fill:#1a5fb4;stroke:none;stroke-width:0.264583px;stroke-linecap:butt;stroke-linejoin:miter;stroke-opacity:1"
         d="m 66.373313,357.67809 3.741201,3.74228 3.74182,-3.74178 1.31e-4,5.29179 5.291547,-1.2e-4 -3.741773,3.74177 3.741775,3.74178 -5.291585,1.1e-4 -8.9e-5,5.29155 -3.741768,-3.74177 -3.74165,3.74189 3.44e-4,-5.29131 -5.292266,-2.6e-4 3.7419,-3.74189 -3.741892,-3.74166 h 5.291667 z"
         id="path13732" />
      <path
         style="fill:#e5a50a;stroke:none;stroke-width:0.264583px;stroke-linecap:butt;stroke-linejoin:miter;stroke-opacity:1"
         d="m 55.827734,375.70748 5.291663,-5.29166 5.29102,7.9e-4 v 5.29143 l -5.291256,5.29126 h -5.291427 z"
         id="path13734" />
      <path
         style="fill:#e5a50a;stroke:none;stroke-width:0.264583px;stroke-linecap:butt;stroke-linejoin:miter;stroke-opacity:1"
         d="m 73.819401,357.71605 5.291663,-5.29166 5.29102,7.9e-4 v 5.29143 l -5.291256,5.29126 h -5.291427 z"
         id="path13736" />
      <path
         style="fill:#e5a50a;stroke:none;stroke-width:0.264583px;stroke-linecap:butt;stroke-linejoin:miter;stroke-opacity:1"
         d="m 79.11057,370.41661 5.29166,5.29166 -7.9e-4,5.29102 h -5.29143 l -5.29126,-5.29125 v -5.29143 z"
         id="path13738" />
      <path
         style="fill:#e5a50a;stroke:none;stroke-width:0.264583px;stroke-linecap:butt;stroke-linejoin:miter;stroke-opacity:1"
         d="m 61.119547,352.42559 5.29166,5.29166 -7.9e-4,5.29102 h -5.29143 l -5.29126,-5.29125 v -5.29143 z"
         id="path13740" />
      <path
         style="fill:#dc8add;stroke:none;stroke-width:0.264583px;stroke-linecap:butt;stroke-linejoin:miter;stroke-opacity:1"
         d="m 70.114584,361.42077 -1.579212,1.53956 0.01019,2.2023 h -2.191874 l -1.549759,1.54976 1.549365,1.54938 h 2.193172 l -9e-4,2.19227 1.550028,1.55003 1.549779,-1.54978 2.36e-4,-2.19184 2.202483,0.0106 1.539167,-1.56064 -1.54977,-1.54977 h -2.19188 l 7e-6,-2.19188 z"
         id="path13742" />
      <path
         style="fill:#26a269;stroke:none;stroke-width:0.264583px;stroke-linecap:butt;stroke-linejoin:miter;stroke-opacity:1"
         d="m 68.563987,370.45358 v -3.10006 l -2.191287,-2.19128 3.099457,-2.7e-4 2.191874,-2.19188 -10e-7,3.10005 2.192284,2.19098 h -3.09978 z"
         id="path13744" />
      <path
         style="fill:#26a269;stroke:none;stroke-width:0.264583px;stroke-linecap:butt;stroke-linejoin:miter;stroke-opacity:1"
         d="m 66.372934,352.38742 v 5.2917 l 3.74165,3.74165 3.74225,-3.7413 8e-5,-3.10081 -2.18189,-2.20185 z"
         id="path13746" />
      <path
         style="fill:#26a269;stroke:none;stroke-width:0.264583px;stroke-linecap:butt;stroke-linejoin:miter;stroke-opacity:1"
         d="m 66.353944,381.03742 v -5.2917 l 3.74165,-3.74165 3.74225,3.7413 8e-5,3.10081 -2.18189,2.20185 z"
         id="path13748" />
      <path
         style="fill:#26a269;stroke:none;stroke-width:0.264583px;stroke-linecap:butt;stroke-linejoin:miter;stroke-opacity:1"
         d="m 84.439714,370.45381 h -5.2917 l -3.74165,-3.74165 3.7413,-3.74225 3.10081,-8e-5 2.20185,2.18189 z"
         id="path13750" />
      <path
         style="fill:#26a269;stroke:none;stroke-width:0.264583px;stroke-linecap:butt;stroke-linejoin:miter;stroke-opacity:1"
         d="m 55.7893,370.45402 h 5.2917 l 3.74165,-3.74165 -3.7413,-3.74225 -3.10081,-8e-5 -2.20185,2.18189 z"
         id="path13752" />
      <path
         style="fill:#c64600;stroke:none;stroke-width:0.264583px;stroke-linecap:butt;stroke-linejoin:miter;stroke-opacity:1"
         d="m 66.372744,357.67908 1.9e-4,-5.29166 -5.29168,1.7e-4 z"
         id="path13754" />
      <path
         style="fill:#c061cb;stroke:none;stroke-width:0.264583px;stroke-linecap:butt;stroke-linejoin:miter;stroke-opacity:1"
         d="m 73.856804,357.67833 1.1e-4,-3.09967 -2.192,-2.192 7.48355,10e-6 z"
         id="path13756" />
      <path
         style="fill:#c64600;stroke:none;stroke-width:0.264583px;stroke-linecap:butt;stroke-linejoin:miter;stroke-opacity:1"
         d="m 66.353754,375.74576 1.9e-4,5.29166 -5.29168,-1.7e-4 z"
         id="path13758" />
      <path
         style="fill:#c64600;stroke:none;stroke-width:0.264583px;stroke-linecap:butt;stroke-linejoin:miter;stroke-opacity:1"
         d="m 79.11057,370.41661 5.29166,-1.9e-4 -1.7e-4,5.29168 z"
         id="path13760" />
      <path
         style="fill:#c64600;stroke:none;stroke-width:0.264583px;stroke-linecap:butt;stroke-linejoin:miter;stroke-opacity:1"
         d="m 61.08096,370.45421 -5.29166,-1.9e-4 1.7e-4,5.29168 z"
         id="path13762" />
      <path
         style="fill:#c061cb;stroke:none;stroke-width:0.264583px;stroke-linecap:butt;stroke-linejoin:miter;stroke-opacity:1"
         d="m 61.08021,362.97015 -3.09967,-1.1e-4 -2.192,2.192 1e-5,-7.48355 z"
         id="path13764" />
      <path
         style="fill:#c061cb;stroke:none;stroke-width:0.264583px;stroke-linecap:butt;stroke-linejoin:miter;stroke-opacity:1"
         d="m 71.646048,381.0379 2.191876,-2.19172 v -3.09996 l 5.291662,5.29168 z"
         id="path13766" />
      <path
         style="fill:#c061cb;stroke:none;stroke-width:0.264583px;stroke-linecap:butt;stroke-linejoin:miter;stroke-opacity:1"
         d="m 84.402084,365.20015 -2.19172,-2.19188 h -3.09996 l 5.29168,-5.29166 z"
         id="path13768" />
    </g>
  </g>
</svg>
